<?xml version="1.0" standalone="no"?>
<!DOCTYPE svg PUBLIC "-//W3C//DTD SVG 1.1//EN" "http://www.w3.org/Graphics/SVG/1.1/DTD/svg11.dtd" >
<svg xmlns="http://www.w3.org/2000/svg">
<metadata></metadata>
<defs>
<font id="gothammediumitalic" horiz-adv-x="1712" >
<font-face units-per-em="2048" ascent="1638" descent="-410" />
<missing-glyph horiz-adv-x="614" />
<glyph horiz-adv-x="2048" />
<glyph horiz-adv-x="2048" />
<glyph unicode="&#xd;" horiz-adv-x="2048" />
<glyph unicode=" "  horiz-adv-x="614" />
<glyph unicode="&#x09;" horiz-adv-x="614" />
<glyph unicode="&#xa0;" horiz-adv-x="614" />
<glyph unicode="!" horiz-adv-x="620" d="M29 0l73 281h275l-76 -281h-272zM217 453l166 909l20 72h291l-20 -72l-320 -909h-137z" />
<glyph unicode="&#x22;" horiz-adv-x="1009" d="M205 821l176 613h283l-2 -11l-326 -602h-131zM662 821l178 613h282l-4 -11l-325 -602h-131z" />
<glyph unicode="#" horiz-adv-x="1406" d="M37 330l57 213h209l123 356h-215l57 213h232l112 322h219l-112 -322h336l112 322h217l-110 -322h190l-55 -213h-211l-123 -356h215l-55 -213h-236l-114 -330h-217l114 330h-336l-114 -330h-219l114 330h-190zM522 543h334l125 356h-336z" />
<glyph unicode="$" horiz-adv-x="1292" d="M-8 260l184 156q127 -145 307 -185l115 400q-87 33 -145 64t-106.5 74.5t-71.5 101.5t-23 133q0 121 70.5 219.5t193 154.5t272.5 56q27 0 39 -2l37 120h178l-41 -143q192 -47 326 -184l-170 -168q-109 101 -227 135l-109 -381q112 -42 183 -88t113 -118t42 -169 q0 -127 -73.5 -227t-201.5 -154.5t-286 -54.5h-12l-60 -201h-178l64 217q-271 54 -420 244zM510 1030q0 -54 36 -89.5t126 -72.5l98 346q-119 3 -189.5 -50.5t-70.5 -133.5zM643 217q118 5 187 56.5t69 138.5q0 53 -33.5 90t-117.5 73z" />
<glyph unicode="%" horiz-adv-x="1765" d="M127 0l1382 1434h224l-1385 -1434h-221zM178 1018q0 108 49.5 206.5t142 162t203.5 63.5q136 0 221 -86.5t85 -222.5q0 -108 -50 -206.5t-142.5 -162t-203.5 -63.5q-137 0 -221 86.5t-84 222.5zM348 1026q0 -77 39.5 -121.5t106.5 -44.5q61 0 111 42t76 104t26 127 q0 77 -38.5 121t-107.5 44q-60 0 -110 -42t-76.5 -104t-26.5 -126zM981 293q0 109 49.5 207.5t141.5 161.5t204 63q136 0 220.5 -86.5t84.5 -220.5q0 -109 -49.5 -208t-142 -162.5t-203.5 -63.5q-137 0 -221 87t-84 222zM1151 301q0 -76 39 -121t106 -45q61 0 111.5 42.5 t77 104.5t26.5 126q0 77 -39 122t-106 45q-91 0 -153 -86.5t-62 -187.5z" />
<glyph unicode="&#x26;" horiz-adv-x="1421" d="M51 356q0 73 26 139.5t78 126.5t136.5 109.5t195.5 83.5q-81 137 -81 256q0 161 121.5 274t310.5 113q168 0 272 -92t104 -238q0 -266 -409 -395l201 -276q92 100 192 264l158 -107q-115 -180 -234 -311l154 -213l-186 -119l-134 185q-220 -176 -462 -176 q-195 0 -319 100.5t-124 275.5zM293 373q0 -83 60 -134t167 -51q162 0 322 127l-252 351q-150 -47 -223.5 -124.5t-73.5 -168.5zM629 1069q0 -84 69 -192q162 53 225.5 109t63.5 128q0 60 -43.5 103t-118.5 43q-84 0 -140 -56.5t-56 -134.5z" />
<glyph unicode="'" horiz-adv-x="550" d="M205 821l176 613h283l-2 -11l-326 -602h-131z" />
<glyph unicode="(" horiz-adv-x="901" d="M143 434q0 217 91.5 411t275 354t444.5 265l90 -184q-319 -144 -483 -367.5t-164 -470.5q0 -164 71.5 -304t197.5 -273l-152 -156q-371 306 -371 725z" />
<glyph unicode=")" horiz-adv-x="901" d="M-117 -100q319 144 483 367t164 470q0 299 -270 576l154 157q370 -305 370 -725q0 -330 -210 -602t-601 -428z" />
<glyph unicode="*" horiz-adv-x="880" d="M242 1096l254 37l-199 159l102 103l158 -199l39 248l137 -35l-92 -235l238 92l39 -140l-254 -39l200 -157l-104 -105l-158 199l-37 -248l-139 35l92 236l-237 -93z" />
<glyph unicode="+" horiz-adv-x="1323" d="M170 608l61 226h394l102 391h236l-105 -391h393l-61 -226h-393l-105 -391h-233l104 391h-393z" />
<glyph unicode="," horiz-adv-x="600" d="M-111 -193q204 28 236 193h-107l76 281h273l-64 -238q-45 -171 -139 -249.5t-256 -90.5z" />
<glyph unicode="-" horiz-adv-x="841" d="M109 506l65 244h606l-65 -244h-606z" />
<glyph unicode="." horiz-adv-x="600" d="M18 0l76 281h273l-76 -281h-273z" />
<glyph unicode="/" horiz-adv-x="1067" d="M-268 -262l1417 1896h237l-1417 -1896h-237z" />
<glyph unicode="0" horiz-adv-x="1482" d="M139 553q0 130 33.5 260t100 245.5t156.5 205t212 142t258 52.5q244 0 389.5 -158.5t145.5 -418.5q0 -130 -33.5 -260t-99.5 -246t-156 -205.5t-211.5 -142t-257.5 -52.5q-246 0 -391.5 159t-145.5 419zM399 553q0 -162 78 -256t217 -94q101 0 192.5 62t153.5 160 t98 218.5t36 237.5q0 162 -78 256t-217 94q-101 0 -192.5 -62t-153.5 -160t-98 -218.5t-36 -237.5z" />
<glyph unicode="1" horiz-adv-x="827" d="M193 0l315 1174l-272 -70l-5 217l424 123h174l-387 -1444h-249z" />
<glyph unicode="2" horiz-adv-x="1241" d="M-55 0l55 205l764 549q114 82 167.5 151.5t53.5 145.5q0 82 -58 129t-159 47q-98 0 -185 -48.5t-177 -138.5l-158 162q231 252 530 252q210 0 338.5 -105.5t128.5 -273.5q0 -130 -74 -236.5t-251 -232.5l-533 -385h670l-60 -221h-1052z" />
<glyph unicode="3" horiz-adv-x="1239" d="M-18 250l190 135q60 -91 140 -136.5t200 -45.5q137 0 229.5 72t92.5 176q0 98 -84.5 149t-233.5 51h-78l-16 154l487 409h-610l59 220h955l-51 -189l-512 -418q156 -26 248 -114t92 -240q0 -140 -78.5 -254.5t-213.5 -179t-298 -64.5q-188 0 -317.5 73t-200.5 202z" />
<glyph unicode="4" horiz-adv-x="1341" d="M41 508l1020 936h244l-246 -916h205l-56 -206h-204l-86 -322h-240l86 322h-696zM362 528h457l154 572z" />
<glyph unicode="5" horiz-adv-x="1243" d="M-2 233l180 146q146 -176 357 -176q148 0 245 82.5t97 195.5q0 99 -77 160t-214 61q-113 0 -234 -59l-131 107l223 684h842l-63 -224h-613l-108 -329q91 32 184 32q201 0 326 -111t125 -296q0 -105 -45 -201t-124.5 -169t-197.5 -116t-256 -43q-160 0 -301 72.5 t-215 183.5z" />
<glyph unicode="6" horiz-adv-x="1314" d="M135 508q0 214 75 410t208 329q214 211 502 211q263 0 434 -174l-150 -178q-132 125 -305 125q-179 0 -305 -129q-63 -63 -111.5 -153.5t-66.5 -186.5q55 66 153.5 112t210.5 46q193 0 318 -112t125 -294q0 -104 -45 -202.5t-121.5 -172.5t-185 -119t-228.5 -45 q-110 0 -204.5 34t-157.5 97q-146 146 -146 402zM381 426q0 -99 65 -164q75 -72 199 -72q138 0 230 88.5t92 206.5q0 98 -69 163t-187 65q-145 0 -237.5 -85t-92.5 -202z" />
<glyph unicode="7" horiz-adv-x="1228" d="M61 0l914 1212h-709l60 222h1007l-53 -191l-922 -1243h-297z" />
<glyph unicode="8" horiz-adv-x="1343" d="M70 375q0 159 107 259t282 138q-87 38 -138 115t-51 170q0 75 36.5 145.5t102.5 127t168 90.5t224 34q219 0 358 -106.5t139 -272.5q0 -137 -89.5 -233t-239.5 -129q102 -39 165.5 -120t63.5 -192q0 -84 -42 -160t-117 -134t-186.5 -92.5t-242.5 -34.5q-228 0 -384 112 t-156 283zM319 397q-2 -93 83.5 -152t222.5 -59q141 0 232.5 63.5t92.5 164.5q0 91 -85 152t-222 61q-143 0 -233.5 -66.5t-90.5 -163.5zM508 1030q-2 -86 72 -143.5t192 -57.5q127 0 207 64t80 154q2 86 -71 142t-197 56q-121 0 -201 -61t-82 -154z" />
<glyph unicode="9" horiz-adv-x="1314" d="M39 164l151 178q76 -69 152 -105t168 -36q177 0 307 133q131 128 174 323q-57 -66 -153.5 -112.5t-210.5 -46.5q-194 0 -318.5 112t-124.5 299q1 149 77.5 275t210 200t294.5 74q105 0 202.5 -34.5t159.5 -96.5q146 -143 146 -422q0 -206 -76.5 -396.5t-210.5 -324.5 q-209 -209 -489 -209q-264 0 -459 189zM440 938q0 -102 70 -166.5t192 -64.5q141 0 233.5 88t92.5 209q0 100 -65 165q-74 74 -199 74q-142 0 -233 -89.5t-91 -215.5z" />
<glyph unicode=":" horiz-adv-x="606" d="M23 0l75 281h273l-76 -281h-272zM238 801l75 280h273l-76 -280h-272z" />
<glyph unicode=";" horiz-adv-x="606" d="M-109 -193q207 28 236 193h-104l75 281h273l-64 -238q-46 -171 -140.5 -249.5t-256.5 -90.5zM238 801l75 280h273l-76 -280h-272z" />
<glyph unicode="&#x3c;" horiz-adv-x="1310" d="M152 610l59 221l1100 453l-68 -248l-819 -325l645 -328l-59 -225z" />
<glyph unicode="=" horiz-adv-x="1310" d="M127 350l61 230h959l-62 -230h-958zM264 862l62 230h958l-61 -230h-959z" />
<glyph unicode="&#x3e;" horiz-adv-x="1310" d="M78 158l67 248l820 325l-646 328l60 225l858 -453l-59 -221z" />
<glyph unicode="?" horiz-adv-x="1107" d="M201 1249q95 96 223.5 149.5t269.5 53.5q201 0 322 -107t121 -262q0 -184 -140 -299t-391 -153l-67 -178h-166l47 331l12 11q208 15 324 82t116 178q0 80 -55 124t-155 44q-86 0 -171.5 -38t-154.5 -102zM203 0l76 281h272l-76 -281h-272z" />
<glyph unicode="@" horiz-adv-x="2007" d="M119 475q0 195 78.5 376.5t211.5 315.5t319.5 214.5t391.5 80.5q187 0 343 -57t259 -154.5t160 -226t57 -272.5q0 -151 -40.5 -271.5t-107.5 -193.5t-148 -111.5t-168 -38.5q-104 0 -176 46.5t-99 125.5q-157 -174 -344 -174q-139 0 -233.5 92.5t-94.5 251.5 q0 117 44.5 222.5t116 178.5t163.5 115.5t186 42.5q197 0 283 -168l45 150l188 -51l-159 -506q-33 -109 2.5 -172.5t124.5 -63.5q55 0 113 34.5t108.5 97.5t82.5 166t32 227q0 129 -51.5 244t-144.5 202t-233.5 137.5t-308.5 50.5q-188 0 -359.5 -74.5t-293.5 -198.5 t-194 -291.5t-72 -346.5q0 -211 97 -375t273 -255t404 -91q213 0 420 92l32 -67q-216 -101 -452 -101q-251 0 -446 101t-302.5 282.5t-107.5 413.5zM745 506q0 -91 51.5 -144t137.5 -53q122 0 224 107.5t102 247.5q0 89 -56.5 143.5t-148.5 54.5q-122 0 -216 -105t-94 -251z " />
<glyph unicode="A" horiz-adv-x="1562" d="M-102 0l1017 1444h242l244 -1444h-258l-56 346h-677l-240 -346h-272zM563 569h494l-92 580z" />
<glyph unicode="B" horiz-adv-x="1468" d="M39 0l385 1434h549q228 0 348.5 -95t120.5 -249q0 -143 -90 -238t-238 -127q221 -85 221 -293q0 -194 -162 -313t-448 -119h-686zM346 223h414q151 0 238 59.5t87 163.5q0 81 -66.5 125.5t-184.5 44.5h-383zM508 829h356q152 0 238 57.5t86 162.5q0 77 -60 119t-178 42 h-340z" />
<glyph unicode="C" horiz-adv-x="1495" d="M154 586q0 170 68.5 330t184 279t276.5 191t337 72q196 0 336 -81t223 -226l-209 -141q-70 107 -158 162t-221 55q-113 0 -219 -52t-184 -137.5t-125 -201.5t-47 -240q0 -175 108.5 -282t280.5 -107q113 0 199.5 41t181.5 123l166 -168q-111 -108 -244 -168t-307 -60 q-185 0 -331 73t-231 213.5t-85 324.5z" />
<glyph unicode="D" horiz-adv-x="1587" d="M39 0l385 1434h389q372 0 559 -187q158 -155 158 -418q0 -161 -59.5 -304.5t-172.5 -256.5q-268 -268 -745 -268h-514zM352 229h232q159 0 294 50t230 145q160 160 160 395q0 163 -101 264q-121 121 -372 121h-179z" />
<glyph unicode="E" horiz-adv-x="1351" d="M39 0l385 1434h1053l-62 -226h-801l-100 -374h711l-62 -224h-710l-103 -385h813l-61 -225h-1063z" />
<glyph unicode="F" horiz-adv-x="1353" d="M39 0l385 1434h1067l-61 -230h-816l-104 -391h723l-62 -229h-722l-156 -584h-254z" />
<glyph unicode="G" horiz-adv-x="1601" d="M152 592q0 132 43 260.5t123.5 237t188 191.5t246 130t287.5 47q385 0 568 -254l-189 -160q-72 86 -165 134.5t-232 48.5q-126 0 -240 -52.5t-193.5 -138.5t-126 -200.5t-46.5 -235.5q0 -184 114.5 -289.5t294.5 -105.5q163 0 303 74l89 303h-367l59 219h611l-195 -686 q-236 -140 -516 -140q-128 0 -244.5 39.5t-209.5 114.5t-148 194.5t-55 268.5z" />
<glyph unicode="H" horiz-adv-x="1548" d="M39 0l385 1434h254l-160 -596h674l160 596h252l-385 -1434h-252l161 604h-673l-162 -604h-254z" />
<glyph unicode="I" horiz-adv-x="649" d="M53 0l385 1434h254l-385 -1434h-254z" />
<glyph unicode="J" horiz-adv-x="1155" d="M-59 246l184 145q55 -92 120.5 -135t153.5 -43q125 0 213 88q43 41 73 106t63 193l223 834h260l-240 -891q-42 -159 -86.5 -251.5t-116.5 -164.5q-150 -147 -399 -147q-148 0 -264.5 70t-183.5 196z" />
<glyph unicode="K" horiz-adv-x="1480" d="M39 0l385 1434h254l-195 -725l840 725h346l-729 -613l367 -821h-279l-289 672l-346 -291l-100 -381h-254z" />
<glyph unicode="L" horiz-adv-x="1265" d="M39 0l385 1434h254l-324 -1205h754l-64 -229h-1005z" />
<glyph unicode="M" horiz-adv-x="1777" d="M39 0l385 1434h256l250 -678l614 678h289l-385 -1434h-256l276 1028l-630 -676h-9l-264 672l-274 -1024h-252z" />
<glyph unicode="N" horiz-adv-x="1609" d="M39 0l385 1434h233l486 -1014l274 1014h248l-385 -1434h-211l-502 1042l-278 -1042h-250z" />
<glyph unicode="O" d="M156 604q0 129 40 255t116.5 233.5t179 189.5t236 129t278.5 47q142 0 263 -48.5t204.5 -132.5t130.5 -200t47 -248q0 -162 -64 -316.5t-174.5 -273.5t-271.5 -191.5t-342 -72.5q-142 0 -262.5 48.5t-203.5 132.5t-130 200t-47 248zM418 618q0 -182 109.5 -296.5 t297.5 -114.5q120 0 227.5 54t180 140.5t114.5 195t42 218.5q0 181 -110 296.5t-298 115.5q-120 0 -227 -54t-179.5 -140.5t-114.5 -195.5t-42 -219z" />
<glyph unicode="P" horiz-adv-x="1380" d="M39 0l385 1434h453q295 0 434 -142q106 -106 106 -282q0 -127 -52.5 -230.5t-145.5 -172t-221.5 -105.5t-280.5 -37h-299l-125 -465h-254zM477 688h252q198 0 312 79.5t114 221.5q0 86 -55 141q-74 74 -232 74h-254z" />
<glyph unicode="Q" d="M156 604q0 129 40 255t116.5 233.5t179 189.5t236 129t278.5 47q142 0 263 -48.5t204.5 -132.5t130.5 -200t47 -248q0 -170 -68.5 -330t-191.5 -280l125 -158l-205 -139l-111 158q-186 -105 -401 -105q-142 0 -262.5 48.5t-203.5 132.5t-130 200t-47 248zM418 618 q0 -182 109.5 -296.5t297.5 -114.5q130 0 244 65l-203 254l207 142l172 -246q68 84 106 187t38 206q0 181 -110 296.5t-298 115.5q-120 0 -227 -54t-179.5 -140.5t-114.5 -195.5t-42 -219z" />
<glyph unicode="R" horiz-adv-x="1480" d="M39 0l385 1434h520q356 0 461 -209q52 -90 52 -190q0 -49 -13 -101q-22 -158 -137.5 -263.5t-313.5 -146.5l267 -524h-289l-246 500h-299l-133 -500h-254zM485 723h326q156 0 258.5 55t120.5 156q15 39 15 75q0 39 -17 74q-43 121 -258 121h-314z" />
<glyph unicode="S" horiz-adv-x="1304" d="M-2 248l190 158q90 -102 194 -152.5t239 -50.5q121 0 198.5 54.5t77.5 143.5q0 65 -55.5 111t-208.5 106q-71 28 -123.5 55t-100.5 61.5t-78.5 73t-48.5 88.5t-18 108q0 132 73.5 235.5t199 159t278.5 55.5q331 0 526 -215l-176 -172q-85 83 -172 123.5t-196 40.5 q-121 0 -194 -56.5t-73 -132.5q0 -67 58.5 -111t220.5 -108q179 -70 267.5 -157t88.5 -228q0 -137 -77 -242.5t-203.5 -160.5t-278.5 -55q-406 0 -608 268z" />
<glyph unicode="T" horiz-adv-x="1265" d="M223 1200l64 234h1163l-64 -234h-454l-324 -1200h-252l324 1200h-457z" />
<glyph unicode="U" horiz-adv-x="1560" d="M176 451q0 115 33 227l201 756h252l-211 -791q-21 -82 -21 -158q0 -125 78 -200.5t223 -75.5q160 0 268 108t158 301l219 816h252l-229 -854q-73 -274 -223 -424q-179 -179 -469 -179q-250 0 -390.5 127t-140.5 347z" />
<glyph unicode="V" horiz-adv-x="1476" d="M266 1434h271l129 -1096l718 1096h285l-977 -1444h-223z" />
<glyph unicode="W" horiz-adv-x="2248" d="M279 1434h262l59 -1063l633 1067h213l70 -1067l626 1063h287l-887 -1444h-231l-74 1018l-619 -1018h-227z" />
<glyph unicode="X" horiz-adv-x="1429" d="M-88 0l711 743l-330 691h282l230 -512l471 512h323l-688 -721l340 -713h-282l-242 535l-491 -535h-324z" />
<glyph unicode="Y" horiz-adv-x="1341" d="M219 1434h279l217 -648l567 648h311l-809 -891l-145 -543h-252l152 569z" />
<glyph unicode="Z" horiz-adv-x="1394" d="M-39 0l49 186l1096 1024h-793l62 224h1141l-52 -187l-1095 -1024h827l-59 -223h-1176z" />
<glyph unicode="[" horiz-adv-x="929" d="M-4 -266l457 1700h630l-53 -195h-393l-352 -1311h393l-51 -194h-631z" />
<glyph unicode="\" horiz-adv-x="1067" d="M260 1634h207l434 -1896h-207z" />
<glyph unicode="]" horiz-adv-x="929" d="M-131 -266l53 194h393l353 1311h-394l52 195h630l-456 -1700h-631z" />
<glyph unicode="^" horiz-adv-x="1024" d="M201 1010l424 426h174l196 -426h-172l-137 270l-280 -270h-205z" />
<glyph unicode="_" horiz-adv-x="1228" d="M-236 -328l54 193h1237l-51 -193h-1240z" />
<glyph unicode="`" horiz-adv-x="1024" d="M537 1454l231 100l125 -335h-170z" />
<glyph unicode="a" horiz-adv-x="1193" d="M27 274q0 183 133 286.5t348 103.5q166 0 323 -54l7 23q12 50 12 86q0 75 -58 117.5t-178 42.5q-150 0 -297 -60l-41 205q183 74 388 74q211 0 322.5 -88t111.5 -248q0 -67 -23 -154l-162 -608h-243l37 141q-154 -164 -351 -164q-142 0 -235.5 82t-93.5 215zM281 307 q0 -70 46 -108.5t126 -38.5q112 0 206 75.5t121 178.5l13 47q-139 41 -246 41q-122 0 -194 -54.5t-72 -140.5z" />
<glyph unicode="b" horiz-adv-x="1368" d="M10 0l400 1495h247l-149 -557q80 80 163 123t183 43q185 0 303.5 -126t118.5 -337q0 -140 -50.5 -265t-133.5 -211.5t-192.5 -137t-225.5 -50.5q-247 0 -365 216l-51 -193h-248zM373 463q0 -120 76 -197.5t196 -77.5q153 0 263 128t110 307q0 124 -70 196t-186 72 q-98 0 -188 -58.5t-145.5 -158t-55.5 -211.5z" />
<glyph unicode="c" horiz-adv-x="1148" d="M90 457q0 130 52 250t138.5 206.5t204 138.5t244.5 52q299 0 438 -246l-192 -131q-32 51 -64 84t-84 55.5t-118 22.5q-72 0 -140 -35.5t-118.5 -93.5t-81.5 -137.5t-31 -163.5q0 -124 74 -197.5t182 -73.5q78 0 142.5 30t133.5 91l131 -162q-93 -84 -190 -128t-225 -44 q-214 0 -355 132.5t-141 349.5z" />
<glyph unicode="d" horiz-adv-x="1368" d="M90 440q0 140 51 265t134 211.5t192.5 137t224.5 50.5q248 0 365 -215l162 606h247l-399 -1495h-248l39 143q-80 -80 -163 -123t-183 -43q-184 0 -303 126t-119 337zM348 457q0 -123 70.5 -196t187.5 -73q98 0 188 59t145.5 159t55.5 212q0 119 -76.5 196t-197.5 77 q-152 0 -262.5 -127t-110.5 -307z" />
<glyph unicode="e" horiz-adv-x="1228" d="M90 449q0 120 47.5 237t129 210t202.5 150.5t258 57.5q201 0 316.5 -118.5t115.5 -301.5q0 -109 -47 -229h-786q0 -126 72.5 -201.5t207.5 -75.5q76 0 141 25.5t136 79.5l118 -158q-182 -150 -419 -150q-226 0 -359 128t-133 346zM352 618h561q11 33 11 76q0 91 -54 149 t-161 58q-124 0 -220 -78.5t-137 -204.5z" />
<glyph unicode="f" horiz-adv-x="811" d="M68 0l233 868h-137l57 213h137l21 88q90 336 412 336q128 0 213 -37l-56 -206q-78 32 -151 32q-137 0 -179 -151l-16 -62h299l-57 -213h-295l-234 -868h-247z" />
<glyph unicode="g" horiz-adv-x="1363" d="M-51 -166l137 172q183 -137 403 -137q169 0 265 96q69 69 112 219l19 66q-90 -83 -176 -123.5t-195 -40.5t-202 44t-153.5 135t-60.5 212q0 131 51 249t134.5 200t192 130t220.5 48q74 0 133 -17.5t101 -50t70 -68t53 -81.5l51 194h248l-238 -893q-39 -146 -79.5 -226 t-104.5 -142q-152 -152 -426 -152q-158 0 -304 44t-251 122zM356 520q0 -111 70.5 -171t179.5 -60q150 0 263.5 109t113.5 253q0 105 -72 173.5t-190 68.5q-147 0 -256 -110t-109 -263z" />
<glyph unicode="h" horiz-adv-x="1265" d="M10 0l400 1495h247l-147 -553q162 162 328 162q151 0 240 -87.5t89 -236.5q0 -64 -32 -190l-156 -590h-248l160 600q16 56 16 109q0 81 -49 125.5t-139 44.5q-103 0 -183.5 -75t-113.5 -196l-164 -608h-248z" />
<glyph unicode="i" horiz-adv-x="585" d="M25 0l290 1081h248l-291 -1081h-247zM350 1247l64 236h268l-66 -236h-266z" />
<glyph unicode="j" horiz-adv-x="583" d="M-256 -315l53 196q54 -12 82 -12q53 0 92 38t58 109l286 1065h248l-295 -1095q-87 -320 -366 -320q-80 0 -158 19zM350 1247l64 236h266l-64 -236h-266z" />
<glyph unicode="k" horiz-adv-x="1191" d="M10 0l402 1495h247l-233 -874l553 460h328l-545 -440l260 -641h-279l-192 481l-209 -168l-84 -313h-248z" />
<glyph unicode="l" horiz-adv-x="585" d="M25 0l401 1495h248l-402 -1495h-247z" />
<glyph unicode="m" horiz-adv-x="1945" d="M10 0l289 1081h248l-37 -139q76 77 149.5 119.5t167.5 42.5q115 0 190.5 -59.5t104.5 -157.5q74 101 177 159t229 58q146 0 233.5 -88t87.5 -236q0 -56 -34 -190l-158 -590h-248l162 600q14 61 14 109q0 82 -45.5 126t-130.5 44q-100 0 -178 -75t-109 -196l-164 -608 h-247l161 600q15 66 15 109q0 82 -45.5 126t-130.5 44q-101 0 -178.5 -74.5t-110.5 -196.5l-164 -608h-248z" />
<glyph unicode="n" horiz-adv-x="1263" d="M10 0l289 1081h248l-37 -139q162 162 328 162q151 0 240 -87.5t89 -236.5q0 -64 -32 -190l-156 -590h-248l160 600q16 56 16 109q0 81 -49 125.5t-139 44.5q-103 0 -183.5 -75t-113.5 -196l-164 -608h-248z" />
<glyph unicode="o" horiz-adv-x="1323" d="M92 469q0 122 50 238t134.5 203.5t202 140.5t244.5 53q229 0 368.5 -139t139.5 -357q0 -122 -50.5 -238t-135.5 -202.5t-202 -139.5t-243 -53q-229 0 -368.5 138.5t-139.5 355.5zM338 477q0 -134 75.5 -210.5t200.5 -76.5q76 0 146 37t118.5 95.5t77.5 132.5t29 147 q0 134 -75.5 210.5t-200.5 76.5q-102 0 -189 -63t-134.5 -157.5t-47.5 -191.5z" />
<glyph unicode="p" horiz-adv-x="1368" d="M-78 -328l377 1409h248l-39 -143q80 80 163 123t183 43q185 0 303.5 -126t118.5 -337q0 -140 -50.5 -265t-133.5 -211.5t-192.5 -137t-225.5 -50.5q-247 0 -365 216l-139 -521h-248zM373 463q0 -120 76 -197.5t196 -77.5q153 0 263 128t110 307q0 124 -70 196t-186 72 q-98 0 -188 -58.5t-145.5 -158t-55.5 -211.5z" />
<glyph unicode="q" horiz-adv-x="1368" d="M90 440q0 140 51 265t134 211.5t192.5 137t224.5 50.5q249 0 365 -213l51 190h248l-398 -1491h-247l147 555q-161 -168 -346 -168q-184 0 -303 126t-119 337zM348 457q0 -123 70.5 -196t187.5 -73q98 0 188 59t145.5 159t55.5 212q0 120 -76.5 196.5t-197.5 76.5 q-152 0 -262.5 -127t-110.5 -307z" />
<glyph unicode="r" horiz-adv-x="843" d="M10 0l289 1081h248l-64 -243q94 136 204 204q97 61 217 61q16 0 32 -1l-70 -262h-14q-169 0 -298 -111t-187 -328l-109 -401h-248z" />
<glyph unicode="s" horiz-adv-x="1019" d="M-33 170l148 152q152 -152 348 -152q75 0 124.5 35t49.5 94q0 39 -37 69.5t-121 65.5q-62 25 -102.5 44.5t-84 48t-68 57.5t-40.5 69.5t-16 89.5q0 155 116.5 257t307.5 102q120 0 231 -44t185 -108l-138 -159q-148 118 -297 118q-77 0 -121 -34.5t-44 -88.5 q0 -40 38.5 -71t133.5 -70q70 -30 117 -55.5t91.5 -62t66.5 -82.5t22 -103q0 -165 -122.5 -266t-310.5 -101q-129 0 -258 50t-219 145z" />
<glyph unicode="t" horiz-adv-x="837" d="M131 195q0 59 19 124l145 549h-137l57 213h137l80 297h248l-80 -297h289l-58 -213h-288l-140 -522q-8 -40 -8 -61q0 -84 109 -84q77 0 158 35l-58 -216q-83 -38 -203 -38q-129 0 -199.5 57.5t-70.5 155.5z" />
<glyph unicode="u" horiz-adv-x="1265" d="M98 301q0 61 33 191l158 589h248l-162 -600q-15 -62 -15 -108q0 -82 49 -126t138 -44q103 0 183.5 74.5t113.5 195.5l164 608h247l-288 -1081h-248l37 139q-162 -162 -328 -162q-151 0 -240.5 87.5t-89.5 236.5z" />
<glyph unicode="v" horiz-adv-x="1189" d="M176 1081h256l78 -790l498 790h270l-729 -1089h-223z" />
<glyph unicode="w" horiz-adv-x="1746" d="M188 1081h252l21 -739l438 743h211l41 -743l422 739h250l-647 -1089h-224l-43 739l-442 -739h-219z" />
<glyph unicode="x" horiz-adv-x="1171" d="M-90 0l551 563l-250 518h266l154 -346l319 346h299l-524 -542l256 -539h-266l-162 369l-342 -369h-301z" />
<glyph unicode="y" horiz-adv-x="1198" d="M-111 -260l131 182q28 -20 67.5 -33.5t72.5 -13.5q49 0 91 26.5t93 94.5l-158 1085h254l90 -800l478 800h270l-698 -1112q-108 -165 -211 -234t-236 -69q-137 0 -244 74z" />
<glyph unicode="z" horiz-adv-x="1134" d="M-49 0l47 170l795 709h-584l53 202h912l-46 -170l-796 -708h612l-55 -203h-938z" />
<glyph unicode="{" horiz-adv-x="997" d="M102 494l52 188h61q78 0 127.5 14.5t85.5 53.5t57 101t37 165q33 227 164 334t408 114l12 -168q-101 -9 -167.5 -31.5t-107 -65.5t-60.5 -98t-32 -140q-18 -141 -59 -223t-103.5 -119t-164.5 -50q81 -15 123.5 -61.5t42.5 -116.5q0 -52 -33 -145q-37 -123 -37 -172 q0 -76 43.5 -123.5t161.5 -87.5l-80 -152q-192 39 -277.5 119t-85.5 203q0 71 43 196q27 86 27 138q0 32 -6.5 53t-24 39t-53 26.5t-90.5 8.5h-64z" />
<glyph unicode="|" horiz-adv-x="677" d="M276 -262v1896h199v-1896h-199z" />
<glyph unicode="}" horiz-adv-x="997" d="M-84 -121q101 9 167.5 31.5t107 66t60.5 98t32 140.5q18 141 59 223t103.5 118.5t164.5 49.5q-80 15 -122 61.5t-42 116.5q0 59 31 146q37 118 37 172q0 76 -43.5 123.5t-161.5 87.5l80 151q192 -39 277.5 -118.5t85.5 -202.5q0 -70 -41 -197q-29 -82 -29 -137 q0 -32 6.5 -53t24.5 -39t53.5 -26.5t91.5 -8.5h62l-52 -188h-61q-151 0 -214.5 -68t-92.5 -266q-23 -152 -85 -246.5t-181 -146t-306 -56.5z" />
<glyph unicode="~" horiz-adv-x="1013" d="M133 532q115 250 283 250q47 0 80.5 -15.5t72.5 -47.5q41 -33 61.5 -44t45.5 -11q40 0 70.5 29.5t64.5 90.5l139 -65q-115 -250 -282 -250q-48 0 -81 15t-75 48q-60 46 -78 52q-13 4 -26 4q-40 0 -72 -30.5t-66 -90.5z" />
<glyph unicode="&#xa1;" horiz-adv-x="620" d="M18 0l21 72l319 909h138l-166 -909l-21 -72h-291zM338 1153l76 281h272l-76 -281h-272z" />
<glyph unicode="&#xa2;" horiz-adv-x="1183" d="M141 653q0 175 84.5 321.5t232 231t324.5 84.5q38 0 54 -2l61 158h180l-76 -193q162 -61 244 -211l-188 -129q-61 97 -146 136l-262 -672h17q87 0 157 29t140 86l133 -166q-178 -164 -424 -164q-50 0 -94 6l-72 -180h-180l90 225q-129 59 -202 173.5t-73 266.5zM387 657 q0 -76 32 -136.5t87 -96.5l254 651q-105 -5 -191.5 -65t-134 -154t-47.5 -199z" />
<glyph unicode="&#xa3;" horiz-adv-x="1306" d="M-20 0l43 160l176 49l96 360h-162l57 213h162l58 215q54 203 163 312q143 143 369 143q289 0 420 -240l-203 -135q-45 72 -98.5 108t-136.5 36q-100 0 -172 -72q-64 -64 -101 -195l-49 -172h514l-55 -213h-514l-94 -350h669l-59 -219h-1083z" />
<glyph unicode="&#xa4;" horiz-adv-x="1452" d="M57 461l47 174h156q9 91 33 174h-143l47 174h149q91 214 266 344.5t402 130.5q379 0 497 -332l-215 -104q-49 107 -116.5 158t-182.5 51q-119 0 -213.5 -65.5t-156.5 -182.5h460l-47 -174h-479q-30 -81 -39 -174h473l-47 -174h-428q17 -121 92 -189.5t189 -68.5 q99 0 173.5 39t151.5 123l170 -148q-205 -242 -499 -242q-226 0 -371.5 131t-167.5 355h-201z" />
<glyph unicode="&#xa5;" horiz-adv-x="1449" d="M117 209l49 182h393l39 150h-393l49 182h321l-282 711h272l221 -603l545 603h305l-671 -711h321l-49 -182h-395l-39 -150h395l-49 -182h-395l-56 -209h-243l55 209h-393z" />
<glyph unicode="&#xa7;" horiz-adv-x="1294" d="M111 164l155 143q61 -59 149 -97t183 -38q78 0 127 28t49 74q0 42 -51 72.5t-180 69.5q-76 23 -126.5 41.5t-104 45t-84.5 54.5t-50.5 67.5t-19.5 86.5q0 106 83 176t232 90q-98 73 -98 178q0 132 122.5 216.5t307.5 84.5q149 0 274.5 -49.5t198.5 -132.5l-156 -144 q-61 59 -148.5 97.5t-182.5 38.5q-78 0 -127.5 -28.5t-49.5 -74.5q0 -42 50.5 -72t181.5 -69q75 -22 126.5 -40.5t104.5 -45t84 -55t50.5 -68t19.5 -86.5q0 -105 -83.5 -175.5t-232.5 -90.5q99 -74 99 -178q0 -132 -122.5 -216.5t-307.5 -84.5q-149 0 -274.5 49.5 t-198.5 132.5zM393 750q0 -46 47 -77.5t158 -66.5q130 -43 215 -43q75 0 128.5 36.5t53.5 88.5q0 46 -46.5 77t-157.5 66q-130 43 -216 43q-75 0 -128.5 -36t-53.5 -88z" />
<glyph unicode="&#xa8;" horiz-adv-x="1024" d="M356 1219l66 241h252l-66 -241h-252zM764 1219l65 241h252l-67 -241h-250z" />
<glyph unicode="&#xa9;" horiz-adv-x="1699" d="M154 715q0 150 58 287t157 237t237 159.5t291 59.5t290.5 -59t235.5 -158t155.5 -235.5t57.5 -286.5q0 -200 -98 -371t-269.5 -272t-375.5 -101t-374.5 100t-267.5 270t-97 370zM233 715q0 -137 50.5 -259.5t137.5 -212t210 -142t262 -52.5q112 0 214.5 34t184 96 t142 144.5t93 184.5t32.5 211q0 182 -86 334.5t-238.5 241.5t-337.5 89q-139 0 -263 -53t-211.5 -143t-138.5 -213t-51 -260zM510 725q0 168 113.5 285.5t285.5 117.5q101 0 171.5 -30.5t131.5 -89.5l-96 -111q-102 92 -209 92q-104 0 -172.5 -76t-68.5 -186 q0 -109 69.5 -185.5t173.5 -76.5q63 0 111 23.5t100 72.5l99 -96q-66 -69 -139.5 -104t-176.5 -35q-168 0 -280.5 115.5t-112.5 283.5z" />
<glyph unicode="&#xaa;" horiz-adv-x="798" d="M109 578l32 118h531l-33 -118h-530zM211 985q0 100 74.5 159.5t187.5 59.5q84 0 180 -30l4 14q9 27 9 41q0 88 -131 88q-83 0 -160 -31l-25 115q100 41 215 41q117 0 178.5 -48t61.5 -137q0 -30 -12 -88l-91 -331h-141l23 80q-90 -93 -197 -93q-77 0 -126.5 45t-49.5 115 zM356 1001q0 -33 24.5 -54t63.5 -21q60 0 114 42t69 101l4 21q-77 22 -133 22q-63 0 -102.5 -31t-39.5 -80z" />
<glyph unicode="&#xab;" horiz-adv-x="1239" d="M94 520l4 17l471 462l148 -133l-371 -362l166 -342l-201 -92zM606 520l4 17l473 462l146 -133l-371 -362l166 -342l-199 -92z" />
<glyph unicode="&#xad;" horiz-adv-x="841" d="M109 506l65 244h606l-65 -244h-606z" />
<glyph unicode="&#xae;" horiz-adv-x="1699" d="M154 715q0 150 58 287t157 237t237 159.5t291 59.5t290.5 -59t235.5 -158t155.5 -235.5t57.5 -286.5q0 -200 -98 -371t-269.5 -272t-375.5 -101t-374.5 100t-267.5 270t-97 370zM233 715q0 -137 50.5 -259.5t137.5 -212t210 -142t262 -52.5q112 0 214.5 34t184 96 t142 144.5t93 184.5t32.5 211q0 182 -86 334.5t-238.5 241.5t-337.5 89q-139 0 -263 -53t-211.5 -143t-138.5 -213t-51 -260zM596 350v776h346q137 0 218 -65.5t81 -181.5q0 -92 -48.5 -152t-131.5 -84l211 -293h-176l-191 268h-160v-268h-149zM745 748h191q72 0 114 32.5 t42 89.5q0 59 -41.5 91t-114.5 32h-191v-245z" />
<glyph unicode="&#xaf;" horiz-adv-x="1024" d="M344 1229l49 182h701l-50 -182h-700z" />
<glyph unicode="&#xb0;" horiz-adv-x="862" d="M180 1071q0 98 50 185.5t137 140.5t188 53q139 0 224 -84t85 -215q0 -98 -50 -185t-137.5 -140.5t-189.5 -53.5q-138 0 -222.5 84t-84.5 215zM336 1079q0 -76 44.5 -122t115.5 -46q89 0 151 72t62 162q0 75 -44.5 121.5t-115.5 46.5q-89 0 -151 -72.5t-62 -161.5z" />
<glyph unicode="&#xb1;" horiz-adv-x="1259" d="M-14 246l190 139q68 -88 155.5 -135t213.5 -47q140 0 222.5 66t82.5 159q0 94 -76 142t-219 48h-127l57 211h140q157 0 254.5 59.5t97.5 164.5q0 80 -66 129t-166 49q-98 0 -174.5 -36t-162.5 -110l-142 160q103 102 224 156.5t280 54.5q210 0 338.5 -103t128.5 -263 q0 -140 -91 -235t-261 -138q95 -33 158 -109.5t63 -185.5q0 -191 -162.5 -319t-417.5 -128q-199 0 -333 76t-207 195z" />
<glyph unicode="&#xb4;" horiz-adv-x="1024" d="M453 1219l307 335l221 -100l-313 -235h-215z" />
<glyph unicode="&#xb5;" d="M156 604q0 129 40 255t116.5 233.5t179 189.5t236 129t278.5 47q142 0 263 -48.5t204.5 -132.5t130.5 -200t47 -248q0 -170 -68.5 -330t-191.5 -280l125 -158l-205 -139l-111 158q-186 -105 -401 -105q-142 0 -262.5 48.5t-203.5 132.5t-130 200t-47 248zM418 618 q0 -182 109.5 -296.5t297.5 -114.5q130 0 244 65l-203 254l207 142l172 -246q68 84 106 187t38 206q0 181 -110 296.5t-298 115.5q-120 0 -227 -54t-179.5 -140.5t-114.5 -195.5t-42 -219z" />
<glyph unicode="&#xb6;" horiz-adv-x="1157" d="M188 883q0 121 45 221t131.5 174t222 115t306.5 41h319l-385 -1434h-252l123 465q-240 8 -375 111t-135 307z" />
<glyph unicode="&#xb7;" horiz-adv-x="600" d="M141 487l76 281h275l-76 -281h-275z" />
<glyph unicode="&#xb8;" horiz-adv-x="1024" d="M106 -248l254 268h187l-250 -358z" />
<glyph unicode="&#xba;" horiz-adv-x="815" d="M111 578l30 118h564l-31 -118h-563zM219 1096q0 139 101.5 243.5t244.5 104.5q128 0 206.5 -77t78.5 -198q0 -139 -101.5 -243.5t-244.5 -104.5q-129 0 -207 77.5t-78 197.5zM362 1102q0 -69 41 -112.5t107 -43.5q83 0 140 67t57 150q0 70 -41 113t-107 43 q-83 0 -140 -67t-57 -150z" />
<glyph unicode="&#xbb;" horiz-adv-x="1239" d="M6 201l369 364l-164 342l199 90l219 -448l-4 -17l-473 -462zM518 201l371 364l-166 342l199 90l219 -448l-4 -17l-473 -462z" />
<glyph unicode="&#xbf;" horiz-adv-x="1107" d="M66 350q0 184 139.5 300t390.5 153l68 178h165l-47 -332l-12 -10q-208 -15 -324 -82t-116 -178q0 -79 55.5 -123.5t155.5 -44.5q87 0 172 37.5t153 101.5l135 -166q-94 -96 -222.5 -149t-268.5 -53q-203 0 -323.5 106.5t-120.5 261.5zM651 1153l76 281h272l-75 -281h-273 z" />
<glyph unicode="&#xc0;" horiz-adv-x="1562" d="M-102 0l1017 1444h242l244 -1444h-258l-56 346h-677l-240 -346h-272zM563 569h494l-92 580zM795 1788l231 100l125 -336h-170z" />
<glyph unicode="&#xc1;" horiz-adv-x="1562" d="M-102 0l1017 1444h242l244 -1444h-258l-56 346h-677l-240 -346h-272zM563 569h494l-92 580zM911 1552l308 336l221 -100l-314 -236h-215z" />
<glyph unicode="&#xc2;" horiz-adv-x="1562" d="M-102 0l1017 1444h242l244 -1444h-258l-56 346h-677l-240 -346h-272zM563 569h494l-92 580zM674 1552l317 299h232l157 -299h-186l-119 138l-196 -138h-205z" />
<glyph unicode="&#xc3;" horiz-adv-x="1562" d="M-102 0l1017 1444h242l244 -1444h-258l-56 346h-677l-240 -346h-272zM563 569h494l-92 580zM655 1608q115 250 283 250q46 0 79 -15.5t75 -48.5q41 -33 61 -44t45 -11q40 0 70.5 30t64.5 91l140 -66q-115 -250 -285 -250q-47 0 -80.5 15.5t-73.5 48.5q-32 24 -44 32.5 t-28 15.5t-32 7q-40 0 -71.5 -30.5t-65.5 -90.5z" />
<glyph unicode="&#xc4;" horiz-adv-x="1562" d="M-102 0l1017 1444h242l244 -1444h-258l-56 346h-677l-240 -346h-272zM563 569h494l-92 580zM725 1552l66 242h251l-65 -242h-252zM1133 1552l65 242h252l-68 -242h-249z" />
<glyph unicode="&#xc5;" horiz-adv-x="1574" d="M-96 0l993 1411q-66 56 -66 145q0 103 76 178.5t183 75.5q98 0 157.5 -56.5t59.5 -141.5q0 -71 -37.5 -129.5t-98.5 -89.5l236 -1393h-258l-55 346h-678l-240 -346h-272zM569 569h494l-92 580zM946 1556q0 -44 28.5 -73t78.5 -29q60 0 99.5 47t39.5 109q0 44 -28.5 73 t-76.5 29q-61 0 -101 -47t-40 -109z" />
<glyph unicode="&#xc6;" horiz-adv-x="2172" d="M-106 0l1185 1434h1209l-62 -226h-766l-100 -374h676l-62 -224h-676l-102 -385h778l-61 -225h-1028l94 346h-524l-285 -346h-276zM637 569h401l172 645h-43z" />
<glyph unicode="&#xc7;" horiz-adv-x="1495" d="M154 586q0 170 68.5 330t184 279t276.5 191t337 72q196 0 336 -81t223 -226l-209 -141q-70 107 -158 162t-221 55q-113 0 -219 -52t-184 -137.5t-125 -201.5t-47 -240q0 -175 108.5 -282t280.5 -107q113 0 199.5 41t181.5 123l166 -168q-111 -108 -244 -168t-307 -60h-15 l-219 -313l-190 90l233 246q-207 52 -331.5 207t-124.5 381z" />
<glyph unicode="&#xc8;" horiz-adv-x="1351" d="M39 0l385 1434h1053l-62 -226h-801l-100 -374h711l-62 -224h-710l-103 -385h813l-61 -225h-1063zM723 1788l231 100l125 -336h-170z" />
<glyph unicode="&#xc9;" horiz-adv-x="1351" d="M39 0l385 1434h1053l-62 -226h-801l-100 -374h711l-62 -224h-710l-103 -385h813l-61 -225h-1063zM805 1552l307 336l221 -100l-313 -236h-215z" />
<glyph unicode="&#xca;" horiz-adv-x="1351" d="M39 0l385 1434h1053l-62 -226h-801l-100 -374h711l-62 -224h-710l-103 -385h813l-61 -225h-1063zM618 1552l318 299h231l158 -299h-186l-119 138l-197 -138h-205z" />
<glyph unicode="&#xcb;" horiz-adv-x="1351" d="M39 0l385 1434h1053l-62 -226h-801l-100 -374h711l-62 -224h-710l-103 -385h813l-61 -225h-1063zM645 1552l66 242h252l-66 -242h-252zM1053 1552l65 242h252l-67 -242h-250z" />
<glyph unicode="&#xcc;" horiz-adv-x="649" d="M53 0l385 1434h254l-385 -1434h-254zM344 1788l231 100l125 -336h-170z" />
<glyph unicode="&#xcd;" horiz-adv-x="649" d="M53 0l385 1434h254l-385 -1434h-254zM444 1552l308 336l221 -100l-314 -236h-215z" />
<glyph unicode="&#xce;" horiz-adv-x="649" d="M53 0l385 1434h254l-385 -1434h-254zM223 1552l318 299h231l158 -299h-187l-118 138l-197 -138h-205z" />
<glyph unicode="&#xcf;" horiz-adv-x="649" d="M53 0l385 1434h254l-385 -1434h-254zM266 1552l66 242h252l-66 -242h-252zM674 1552l65 242h252l-67 -242h-250z" />
<glyph unicode="&#xd0;" horiz-adv-x="1634" d="M84 608l61 226h166l160 600h389q372 0 559 -187q158 -155 158 -418q0 -161 -59 -304.5t-172 -256.5q-130 -130 -319.5 -199t-426.5 -69h-514l164 608h-166zM399 229h232q159 0 294 50t230 145q160 160 160 395q0 163 -101 264q-121 121 -372 121h-178l-101 -370h346 l-61 -226h-346z" />
<glyph unicode="&#xd1;" horiz-adv-x="1609" d="M39 0l385 1434h233l486 -1014l274 1014h248l-385 -1434h-211l-502 1042l-278 -1042h-250zM668 1608q115 250 282 250q46 0 79 -15.5t75 -48.5q41 -33 61 -44t45 -11q40 0 71 30t65 91l139 -66q-115 -250 -285 -250q-47 0 -80 15.5t-73 48.5q-43 33 -62.5 44t-42.5 11 q-40 0 -71.5 -30.5t-65.5 -90.5z" />
<glyph unicode="&#xd2;" d="M156 604q0 129 40 255t116.5 233.5t179 189.5t236 129t278.5 47q142 0 263 -48.5t204.5 -132.5t130.5 -200t47 -248q0 -162 -64 -316.5t-174.5 -273.5t-271.5 -191.5t-342 -72.5q-142 0 -262.5 48.5t-203.5 132.5t-130 200t-47 248zM418 618q0 -182 109.5 -296.5 t297.5 -114.5q120 0 227.5 54t180 140.5t114.5 195t42 218.5q0 181 -110 296.5t-298 115.5q-120 0 -227 -54t-179.5 -140.5t-114.5 -195.5t-42 -219zM827 1788l232 100l125 -336h-170z" />
<glyph unicode="&#xd3;" d="M156 604q0 129 40 255t116.5 233.5t179 189.5t236 129t278.5 47q142 0 263 -48.5t204.5 -132.5t130.5 -200t47 -248q0 -162 -64 -316.5t-174.5 -273.5t-271.5 -191.5t-342 -72.5q-142 0 -262.5 48.5t-203.5 132.5t-130 200t-47 248zM418 618q0 -182 109.5 -296.5 t297.5 -114.5q120 0 227.5 54t180 140.5t114.5 195t42 218.5q0 181 -110 296.5t-298 115.5q-120 0 -227 -54t-179.5 -140.5t-114.5 -195.5t-42 -219zM883 1552l307 336l221 -100l-313 -236h-215z" />
<glyph unicode="&#xd4;" d="M156 604q0 129 40 255t116.5 233.5t179 189.5t236 129t278.5 47q142 0 263 -48.5t204.5 -132.5t130.5 -200t47 -248q0 -162 -64 -316.5t-174.5 -273.5t-271.5 -191.5t-342 -72.5q-142 0 -262.5 48.5t-203.5 132.5t-130 200t-47 248zM418 618q0 -182 109.5 -296.5 t297.5 -114.5q120 0 227.5 54t180 140.5t114.5 195t42 218.5q0 181 -110 296.5t-298 115.5q-120 0 -227 -54t-179.5 -140.5t-114.5 -195.5t-42 -219zM717 1552l317 299h232l157 -299h-186l-119 138l-196 -138h-205z" />
<glyph unicode="&#xd5;" d="M156 604q0 129 40 255t116.5 233.5t179 189.5t236 129t278.5 47q142 0 263 -48.5t204.5 -132.5t130.5 -200t47 -248q0 -162 -64 -316.5t-174.5 -273.5t-271.5 -191.5t-342 -72.5q-142 0 -262.5 48.5t-203.5 132.5t-130 200t-47 248zM418 618q0 -182 109.5 -296.5 t297.5 -114.5q120 0 227.5 54t180 140.5t114.5 195t42 218.5q0 181 -110 296.5t-298 115.5q-120 0 -227 -54t-179.5 -140.5t-114.5 -195.5t-42 -219zM692 1608q115 250 283 250q46 0 78.5 -15.5t74.5 -48.5q41 -33 61.5 -44t45.5 -11q40 0 70.5 30t64.5 91l139 -66 q-115 -250 -284 -250q-47 0 -80.5 15.5t-73.5 48.5q-32 24 -44 32.5t-28 15.5t-32 7q-40 0 -72 -30.5t-66 -90.5z" />
<glyph unicode="&#xd6;" d="M156 604q0 129 40 255t116.5 233.5t179 189.5t236 129t278.5 47q142 0 263 -48.5t204.5 -132.5t130.5 -200t47 -248q0 -162 -64 -316.5t-174.5 -273.5t-271.5 -191.5t-342 -72.5q-142 0 -262.5 48.5t-203.5 132.5t-130 200t-47 248zM418 618q0 -182 109.5 -296.5 t297.5 -114.5q120 0 227.5 54t180 140.5t114.5 195t42 218.5q0 181 -110 296.5t-298 115.5q-120 0 -227 -54t-179.5 -140.5t-114.5 -195.5t-42 -219zM750 1552l65 242h252l-66 -242h-251zM1157 1552l66 242h252l-68 -242h-250z" />
<glyph unicode="&#xd8;" d="M-47 -10l299 266q-96 152 -96 348q0 129 40 255t116.5 233.5t179 189.5t236 129t278.5 47q264 0 442 -160l164 146h252l-305 -275q92 -150 92 -340q0 -162 -64 -316.5t-174.5 -273.5t-271.5 -191.5t-342 -72.5q-255 0 -434 154l-160 -139h-252zM410 616q0 -112 39 -194 l811 717q-110 96 -279 96q-98 0 -188 -35.5t-158.5 -97t-120 -140t-78 -168t-26.5 -178.5zM555 289q106 -92 268 -92q122 0 231.5 55t183 143.5t116.5 198.5t43 221q0 108 -37 189z" />
<glyph unicode="&#xd9;" horiz-adv-x="1560" d="M176 451q0 115 33 227l201 756h252l-211 -791q-21 -82 -21 -158q0 -125 78 -200.5t223 -75.5q160 0 268 108t158 301l219 816h252l-229 -854q-73 -274 -223 -424q-179 -179 -469 -179q-250 0 -390.5 127t-140.5 347zM788 1788l232 100l125 -336h-170z" />
<glyph unicode="&#xda;" horiz-adv-x="1560" d="M176 451q0 115 33 227l201 756h252l-211 -791q-21 -82 -21 -158q0 -125 78 -200.5t223 -75.5q160 0 268 108t158 301l219 816h252l-229 -854q-73 -274 -223 -424q-179 -179 -469 -179q-250 0 -390.5 127t-140.5 347zM868 1552l308 336l221 -100l-314 -236h-215z" />
<glyph unicode="&#xdb;" horiz-adv-x="1560" d="M176 451q0 115 33 227l201 756h252l-211 -791q-21 -82 -21 -158q0 -125 78 -200.5t223 -75.5q160 0 268 108t158 301l219 816h252l-229 -854q-73 -274 -223 -424q-179 -179 -469 -179q-250 0 -390.5 127t-140.5 347zM674 1552l317 299h232l157 -299h-186l-119 138 l-196 -138h-205z" />
<glyph unicode="&#xdc;" horiz-adv-x="1560" d="M176 451q0 115 33 227l201 756h252l-211 -791q-21 -82 -21 -158q0 -125 78 -200.5t223 -75.5q160 0 268 108t158 301l219 816h252l-229 -854q-73 -274 -223 -424q-179 -179 -469 -179q-250 0 -390.5 127t-140.5 347zM717 1552l65 242h252l-65 -242h-252zM1124 1552 l66 242h252l-68 -242h-250z" />
<glyph unicode="&#xdd;" horiz-adv-x="1341" d="M219 1434h279l217 -648l567 648h311l-809 -891l-145 -543h-252l152 569zM758 1552l307 336l221 -100l-313 -236h-215z" />
<glyph unicode="&#xde;" horiz-adv-x="1398" d="M39 0l385 1434h252l-60 -226h201q292 0 434 -139q107 -110 107 -283q0 -170 -91.5 -294.5t-249 -187t-360.5 -62.5h-299l-65 -242h-254zM416 463h254q198 0 312 79.5t114 223.5q0 83 -56 139q-73 76 -233 76h-252z" />
<glyph unicode="&#xdf;" horiz-adv-x="1286" d="M10 0l277 1028q63 225 178 340q144 141 362 141q194 0 310 -104t116 -266q0 -151 -94.5 -252.5t-257.5 -151.5q248 -86 248 -299q0 -202 -176.5 -324.5t-511.5 -115.5l53 197q205 -3 301 67.5t96 181.5q0 169 -276 207l45 170q336 78 336 297q0 83 -55.5 132.5 t-143.5 49.5q-105 0 -179.5 -75.5t-111.5 -214.5l-268 -1008h-248z" />
<glyph unicode="&#xe0;" horiz-adv-x="1193" d="M27 274q0 183 133 286.5t348 103.5q166 0 323 -54l7 23q12 50 12 86q0 75 -58 117.5t-178 42.5q-150 0 -297 -60l-41 205q183 74 388 74q211 0 322.5 -88t111.5 -248q0 -67 -23 -154l-162 -608h-243l37 141q-154 -164 -351 -164q-142 0 -235.5 82t-93.5 215zM281 307 q0 -70 46 -108.5t126 -38.5q112 0 206 75.5t121 178.5l13 47q-139 41 -246 41q-122 0 -194 -54.5t-72 -140.5zM514 1454l231 100l125 -335h-170z" />
<glyph unicode="&#xe1;" horiz-adv-x="1193" d="M27 274q0 183 133 286.5t348 103.5q166 0 323 -54l7 23q12 50 12 86q0 75 -58 117.5t-178 42.5q-150 0 -297 -60l-41 205q183 74 388 74q211 0 322.5 -88t111.5 -248q0 -67 -23 -154l-162 -608h-243l37 141q-154 -164 -351 -164q-142 0 -235.5 82t-93.5 215zM281 307 q0 -70 46 -108.5t126 -38.5q112 0 206 75.5t121 178.5l13 47q-139 41 -246 41q-122 0 -194 -54.5t-72 -140.5zM592 1219l307 335l221 -100l-313 -235h-215z" />
<glyph unicode="&#xe2;" horiz-adv-x="1193" d="M27 274q0 183 133 286.5t348 103.5q166 0 323 -54l7 23q12 50 12 86q0 75 -58 117.5t-178 42.5q-150 0 -297 -60l-41 205q183 74 388 74q211 0 322.5 -88t111.5 -248q0 -67 -23 -154l-162 -608h-243l37 141q-154 -164 -351 -164q-142 0 -235.5 82t-93.5 215zM281 307 q0 -70 46 -108.5t126 -38.5q112 0 206 75.5t121 178.5l13 47q-139 41 -246 41q-122 0 -194 -54.5t-72 -140.5zM408 1219l317 299h231l158 -299h-186l-119 137l-197 -137h-204z" />
<glyph unicode="&#xe3;" horiz-adv-x="1193" d="M27 274q0 183 133 286.5t348 103.5q166 0 323 -54l7 23q12 50 12 86q0 75 -58 117.5t-178 42.5q-150 0 -297 -60l-41 205q183 74 388 74q211 0 322.5 -88t111.5 -248q0 -67 -23 -154l-162 -608h-243l37 141q-154 -164 -351 -164q-142 0 -235.5 82t-93.5 215zM281 307 q0 -70 46 -108.5t126 -38.5q112 0 206 75.5t121 178.5l13 47q-139 41 -246 41q-122 0 -194 -54.5t-72 -140.5zM375 1274q115 250 282 250q46 0 79 -15.5t75 -48.5q41 -33 61.5 -44t45.5 -11q40 0 70.5 30t64.5 91l139 -66q-115 -250 -285 -250q-47 0 -80 15.5t-73 48.5 q-43 33 -62.5 44t-42.5 11q-40 0 -71.5 -30.5t-65.5 -90.5z" />
<glyph unicode="&#xe4;" horiz-adv-x="1193" d="M27 274q0 183 133 286.5t348 103.5q166 0 323 -54l7 23q12 50 12 86q0 75 -58 117.5t-178 42.5q-150 0 -297 -60l-41 205q183 74 388 74q211 0 322.5 -88t111.5 -248q0 -67 -23 -154l-162 -608h-243l37 141q-154 -164 -351 -164q-142 0 -235.5 82t-93.5 215zM281 307 q0 -70 46 -108.5t126 -38.5q112 0 206 75.5t121 178.5l13 47q-139 41 -246 41q-122 0 -194 -54.5t-72 -140.5zM432 1219l66 241h252l-66 -241h-252zM840 1219l65 241h252l-67 -241h-250z" />
<glyph unicode="&#xe5;" horiz-adv-x="1193" d="M27 274q0 183 133 286.5t348 103.5q166 0 323 -54l7 23q12 50 12 86q0 75 -58 117.5t-178 42.5q-150 0 -297 -60l-41 205q183 74 388 74q211 0 322.5 -88t111.5 -248q0 -67 -23 -154l-162 -608h-243l37 141q-154 -164 -351 -164q-142 0 -235.5 82t-93.5 215zM281 307 q0 -70 46 -108.5t126 -38.5q112 0 206 75.5t121 178.5l13 47q-139 41 -246 41q-122 0 -194 -54.5t-72 -140.5zM580 1415q0 103 75.5 178.5t180.5 75.5q98 0 157.5 -56.5t59.5 -142.5q0 -104 -75 -178.5t-181 -74.5q-98 0 -157.5 56t-59.5 142zM692 1417q0 -45 28.5 -73.5 t78.5 -28.5q60 0 100.5 45.5t40.5 107.5q0 46 -28 74.5t-78 28.5q-60 0 -101 -46t-41 -108z" />
<glyph unicode="&#xe6;" horiz-adv-x="1941" d="M27 289q0 176 133 275.5t348 99.5q166 0 323 -54l7 23q12 50 12 86q0 75 -58 117.5t-178 42.5q-150 0 -297 -60l-41 205q183 74 388 74q297 0 374 -185q80 88 185.5 139.5t224.5 51.5q197 0 310.5 -118.5t113.5 -301.5q0 -117 -47 -229h-787q0 -126 73 -201.5t208 -75.5 q76 0 140.5 25.5t137.5 79.5l117 -158q-77 -67 -185 -108.5t-233 -41.5q-142 0 -248.5 54.5t-164.5 158.5q-110 -101 -224 -156t-253 -55q-174 0 -276.5 84.5t-102.5 227.5zM281 307q0 -70 49.5 -108.5t140.5 -38.5q83 0 184.5 50.5t173.5 125.5q-10 62 -10 117 q-137 49 -272 49q-122 0 -194 -54.5t-72 -140.5zM1065 618h563q8 36 8 76q0 91 -53.5 149t-161.5 58q-122 0 -218 -78.5t-138 -204.5z" />
<glyph unicode="&#xe7;" horiz-adv-x="1144" d="M90 457q0 130 52 250t138.5 206.5t204 138.5t244.5 52q299 0 438 -246l-192 -131q-32 51 -64 84t-84 55.5t-118 22.5q-72 0 -140 -35.5t-118.5 -93.5t-81.5 -137.5t-31 -163.5q0 -124 74 -197.5t182 -73.5q78 0 142.5 30t133.5 91l131 -162q-92 -83 -188 -127t-221 -45 h-2l-219 -313l-191 90l238 248q-149 47 -238.5 167.5t-89.5 289.5z" />
<glyph unicode="&#xe8;" horiz-adv-x="1228" d="M90 449q0 120 47.5 237t129 210t202.5 150.5t258 57.5q201 0 316.5 -118.5t115.5 -301.5q0 -109 -47 -229h-786q0 -126 72.5 -201.5t207.5 -75.5q76 0 141 25.5t136 79.5l118 -158q-182 -150 -419 -150q-226 0 -359 128t-133 346zM352 618h561q11 33 11 76q0 91 -54 149 t-161 58q-124 0 -220 -78.5t-137 -204.5zM526 1454l232 100l125 -335h-170z" />
<glyph unicode="&#xe9;" horiz-adv-x="1228" d="M90 449q0 120 47.5 237t129 210t202.5 150.5t258 57.5q201 0 316.5 -118.5t115.5 -301.5q0 -109 -47 -229h-786q0 -126 72.5 -201.5t207.5 -75.5q76 0 141 25.5t136 79.5l118 -158q-182 -150 -419 -150q-226 0 -359 128t-133 346zM352 618h561q11 33 11 76q0 91 -54 149 t-161 58q-124 0 -220 -78.5t-137 -204.5zM600 1219l307 335l221 -100l-313 -235h-215z" />
<glyph unicode="&#xea;" horiz-adv-x="1228" d="M90 449q0 120 47.5 237t129 210t202.5 150.5t258 57.5q201 0 316.5 -118.5t115.5 -301.5q0 -109 -47 -229h-786q0 -126 72.5 -201.5t207.5 -75.5q76 0 141 25.5t136 79.5l118 -158q-182 -150 -419 -150q-226 0 -359 128t-133 346zM352 618h561q11 33 11 76q0 91 -54 149 t-161 58q-124 0 -220 -78.5t-137 -204.5zM414 1219l317 299h232l157 -299h-186l-119 137l-197 -137h-204z" />
<glyph unicode="&#xeb;" horiz-adv-x="1228" d="M90 449q0 120 47.5 237t129 210t202.5 150.5t258 57.5q201 0 316.5 -118.5t115.5 -301.5q0 -109 -47 -229h-786q0 -126 72.5 -201.5t207.5 -75.5q76 0 141 25.5t136 79.5l118 -158q-182 -150 -419 -150q-226 0 -359 128t-133 346zM352 618h561q11 33 11 76q0 91 -54 149 t-161 58q-124 0 -220 -78.5t-137 -204.5zM444 1219l66 241h252l-66 -241h-252zM852 1219l66 241h251l-67 -241h-250z" />
<glyph unicode="&#xec;" horiz-adv-x="585" d="M25 0l290 1081h248l-291 -1081h-247zM221 1454l232 100l125 -335h-170z" />
<glyph unicode="&#xed;" horiz-adv-x="585" d="M25 0l290 1081h248l-291 -1081h-247zM324 1219l307 335l221 -100l-313 -235h-215z" />
<glyph unicode="&#xee;" horiz-adv-x="585" d="M25 0l290 1081h248l-291 -1081h-247zM106 1219l318 299h231l158 -299h-186l-119 137l-197 -137h-205z" />
<glyph unicode="&#xef;" horiz-adv-x="585" d="M25 0l290 1081h248l-291 -1081h-247zM139 1219l66 241h252l-66 -241h-252zM547 1219l65 241h252l-67 -241h-250z" />
<glyph unicode="&#xf0;" horiz-adv-x="1292" d="M84 444q0 149 75 276.5t201 201t271 73.5q178 0 311 -116l-145 327l-289 -112l-66 131l293 114l-69 156h252l32 -76l236 92l65 -131l-243 -94l98 -237q92 -219 92 -410q0 -134 -44 -254.5t-122.5 -211.5t-197 -144.5t-259.5 -53.5q-217 0 -354 131t-137 338zM324 459 q0 -125 75 -198t193 -73q98 0 180.5 51t128 132.5t45.5 173.5q0 117 -75 192.5t-201 75.5q-145 0 -245.5 -105t-100.5 -249z" />
<glyph unicode="&#xf1;" horiz-adv-x="1263" d="M10 0l289 1081h248l-37 -139q162 162 328 162q151 0 240 -87.5t89 -236.5q0 -64 -32 -190l-156 -590h-248l160 600q16 56 16 109q0 81 -49 125.5t-139 44.5q-103 0 -183.5 -75t-113.5 -196l-164 -608h-248zM410 1274q115 250 282 250q46 0 79 -15.5t75 -48.5 q41 -33 61 -44t45 -11q40 0 70.5 30t64.5 91l140 -66q-115 -250 -285 -250q-47 0 -80.5 15.5t-73.5 48.5q-32 24 -44 32.5t-28 15.5t-32 7q-40 0 -71.5 -30.5t-65.5 -90.5z" />
<glyph unicode="&#xf2;" horiz-adv-x="1323" d="M92 469q0 122 50 238t134.5 203.5t202 140.5t244.5 53q229 0 368.5 -139t139.5 -357q0 -122 -50.5 -238t-135.5 -202.5t-202 -139.5t-243 -53q-229 0 -368.5 138.5t-139.5 355.5zM338 477q0 -134 75.5 -210.5t200.5 -76.5q76 0 146 37t118.5 95.5t77.5 132.5t29 147 q0 134 -75.5 210.5t-200.5 76.5q-102 0 -189 -63t-134.5 -157.5t-47.5 -191.5zM549 1454l231 100l125 -335h-170z" />
<glyph unicode="&#xf3;" horiz-adv-x="1323" d="M92 469q0 122 50 238t134.5 203.5t202 140.5t244.5 53q229 0 368.5 -139t139.5 -357q0 -122 -50.5 -238t-135.5 -202.5t-202 -139.5t-243 -53q-229 0 -368.5 138.5t-139.5 355.5zM338 477q0 -134 75.5 -210.5t200.5 -76.5q76 0 146 37t118.5 95.5t77.5 132.5t29 147 q0 134 -75.5 210.5t-200.5 76.5q-102 0 -189 -63t-134.5 -157.5t-47.5 -191.5zM610 1219l308 335l221 -100l-314 -235h-215z" />
<glyph unicode="&#xf4;" horiz-adv-x="1323" d="M92 469q0 122 50 238t134.5 203.5t202 140.5t244.5 53q229 0 368.5 -139t139.5 -357q0 -122 -50.5 -238t-135.5 -202.5t-202 -139.5t-243 -53q-229 0 -368.5 138.5t-139.5 355.5zM338 477q0 -134 75.5 -210.5t200.5 -76.5q76 0 146 37t118.5 95.5t77.5 132.5t29 147 q0 134 -75.5 210.5t-200.5 76.5q-102 0 -189 -63t-134.5 -157.5t-47.5 -191.5zM440 1219l318 299h231l158 -299h-186l-119 137l-197 -137h-205z" />
<glyph unicode="&#xf5;" horiz-adv-x="1323" d="M92 469q0 122 50 238t134.5 203.5t202 140.5t244.5 53q229 0 368.5 -139t139.5 -357q0 -122 -50.5 -238t-135.5 -202.5t-202 -139.5t-243 -53q-229 0 -368.5 138.5t-139.5 355.5zM338 477q0 -134 75.5 -210.5t200.5 -76.5q76 0 146 37t118.5 95.5t77.5 132.5t29 147 q0 134 -75.5 210.5t-200.5 76.5q-102 0 -189 -63t-134.5 -157.5t-47.5 -191.5zM401 1274q115 250 283 250q46 0 79 -15.5t75 -48.5q41 -33 61 -44t45 -11q40 0 70.5 30t64.5 91l140 -66q-115 -250 -285 -250q-47 0 -80.5 15.5t-73.5 48.5q-32 24 -44 32.5t-28 15.5t-32 7 q-40 0 -71.5 -30.5t-65.5 -90.5z" />
<glyph unicode="&#xf6;" horiz-adv-x="1323" d="M92 469q0 122 50 238t134.5 203.5t202 140.5t244.5 53q229 0 368.5 -139t139.5 -357q0 -122 -50.5 -238t-135.5 -202.5t-202 -139.5t-243 -53q-229 0 -368.5 138.5t-139.5 355.5zM338 477q0 -134 75.5 -210.5t200.5 -76.5q76 0 146 37t118.5 95.5t77.5 132.5t29 147 q0 134 -75.5 210.5t-200.5 76.5q-102 0 -189 -63t-134.5 -157.5t-47.5 -191.5zM461 1219l65 241h252l-65 -241h-252zM868 1219l66 241h252l-68 -241h-250z" />
<glyph unicode="&#xf8;" horiz-adv-x="1323" d="M-98 -10l254 223q-64 116 -64 256q0 122 50 238t134.5 203.5t202 140.5t244.5 53q204 0 338 -115l119 105h231l-248 -220q68 -115 68 -266q0 -122 -50.5 -238t-135.5 -202.5t-202 -139.5t-243 -53q-208 0 -346 119l-119 -104h-233zM330 477q0 -56 16 -106l543 473 q-71 53 -174 53q-81 0 -154 -38t-122.5 -98.5t-79 -135.5t-29.5 -148zM428 240q71 -58 180 -58q80 0 153 37.5t123 97.5t79.5 135.5t29.5 149.5q0 67 -18 117z" />
<glyph unicode="&#xf9;" horiz-adv-x="1265" d="M98 301q0 61 33 191l158 589h248l-162 -600q-15 -62 -15 -108q0 -82 49 -126t138 -44q103 0 183.5 74.5t113.5 195.5l164 608h247l-288 -1081h-248l37 139q-162 -162 -328 -162q-151 0 -240.5 87.5t-89.5 236.5zM569 1454l232 100l125 -335h-170z" />
<glyph unicode="&#xfa;" horiz-adv-x="1265" d="M98 301q0 61 33 191l158 589h248l-162 -600q-15 -62 -15 -108q0 -82 49 -126t138 -44q103 0 183.5 74.5t113.5 195.5l164 608h247l-288 -1081h-248l37 139q-162 -162 -328 -162q-151 0 -240.5 87.5t-89.5 236.5zM631 1219l307 335l221 -100l-313 -235h-215z" />
<glyph unicode="&#xfb;" horiz-adv-x="1265" d="M98 301q0 61 33 191l158 589h248l-162 -600q-15 -62 -15 -108q0 -82 49 -126t138 -44q103 0 183.5 74.5t113.5 195.5l164 608h247l-288 -1081h-248l37 139q-162 -162 -328 -162q-151 0 -240.5 87.5t-89.5 236.5zM442 1219l318 299h231l158 -299h-186l-119 137l-197 -137 h-205z" />
<glyph unicode="&#xfc;" horiz-adv-x="1265" d="M98 301q0 61 33 191l158 589h248l-162 -600q-15 -62 -15 -108q0 -82 49 -126t138 -44q103 0 183.5 74.5t113.5 195.5l164 608h247l-288 -1081h-248l37 139q-162 -162 -328 -162q-151 0 -240.5 87.5t-89.5 236.5zM471 1219l66 241h251l-65 -241h-252zM879 1219l65 241h252 l-68 -241h-249z" />
<glyph unicode="&#xfd;" horiz-adv-x="1198" d="M-111 -260l131 182q28 -20 67.5 -33.5t72.5 -13.5q49 0 91 26.5t93 94.5l-158 1085h254l90 -800l478 800h270l-698 -1112q-108 -165 -211 -234t-236 -69q-137 0 -244 74zM604 1219l307 335l222 -100l-314 -235h-215z" />
<glyph unicode="&#xfe;" horiz-adv-x="1368" d="M-78 -328l490 1823h247l-151 -557q80 80 163 123t183 43q185 0 303.5 -126t118.5 -337q0 -140 -50.5 -265t-133.5 -211.5t-192.5 -137t-225.5 -50.5q-247 0 -365 216l-139 -521h-248zM373 463q0 -120 76 -197.5t196 -77.5q153 0 263 128t110 307q0 124 -70 196t-186 72 q-98 0 -188 -58.5t-145.5 -158t-55.5 -211.5z" />
<glyph unicode="&#xff;" horiz-adv-x="1198" d="M-111 -260l131 182q28 -20 67.5 -33.5t72.5 -13.5q49 0 91 26.5t93 94.5l-158 1085h254l90 -800l478 800h270l-698 -1112q-108 -165 -211 -234t-236 -69q-137 0 -244 74zM420 1219l65 241h252l-65 -241h-252zM827 1219l66 241h252l-68 -241h-250z" />
<glyph unicode="&#x152;" horiz-adv-x="2244" d="M154 604q0 162 59 305.5t172 255.5q269 269 743 269h1231l-61 -226h-766l-100 -374h675l-61 -224h-674l-104 -385h778l-61 -225h-1117q-372 0 -567 195q-147 147 -147 409zM416 614q0 -166 98 -264q121 -121 375 -121h129l262 975h-180q-160 0 -296 -49.5t-231 -144.5 q-157 -157 -157 -396z" />
<glyph unicode="&#x153;" horiz-adv-x="2115" d="M92 469q0 123 49.5 239t133 203t201 140t245.5 53q157 0 267 -68.5t159 -183.5q81 114 200 183t269 69q203 0 317.5 -118t114.5 -302q0 -117 -47 -229h-787q0 -126 73 -201.5t208 -75.5q76 0 141 25.5t138 79.5l116 -158q-77 -68 -184.5 -109t-232.5 -41q-150 0 -258 62 t-158 174q-81 -108 -198 -172t-259 -64q-228 0 -368 139t-140 355zM338 477q0 -130 75.5 -208.5t198.5 -78.5q103 0 190 59.5t135 153t48 195.5q0 133 -75 212t-199 79q-104 0 -191 -61t-134.5 -155t-47.5 -196zM1241 618h561q10 30 10 76q0 91 -54 149t-161 58 q-122 0 -218 -78.5t-138 -204.5z" />
<glyph unicode="&#x178;" horiz-adv-x="1341" d="M219 1434h279l217 -648l567 648h311l-809 -891l-145 -543h-252l152 569zM580 1552l65 242h252l-66 -242h-251zM987 1552l66 242h252l-68 -242h-250z" />
<glyph unicode="&#x2c6;" horiz-adv-x="1024" d="M342 1219l317 299h232l158 -299h-187l-119 137l-196 -137h-205z" />
<glyph unicode="&#x2dc;" horiz-adv-x="1024" d="M322 1274q115 250 282 250q46 0 79 -15.5t75 -48.5q41 -33 61 -44t45 -11q40 0 70.5 30t64.5 91l140 -66q-115 -250 -285 -250q-47 0 -80.5 15.5t-73.5 48.5q-32 24 -44 32.5t-28 15.5t-32 7q-40 0 -71.5 -30.5t-65.5 -90.5z" />
<glyph unicode="&#x2000;" horiz-adv-x="944" />
<glyph unicode="&#x2001;" horiz-adv-x="1888" />
<glyph unicode="&#x2002;" horiz-adv-x="944" />
<glyph unicode="&#x2003;" horiz-adv-x="1888" />
<glyph unicode="&#x2004;" horiz-adv-x="629" />
<glyph unicode="&#x2005;" horiz-adv-x="472" />
<glyph unicode="&#x2006;" horiz-adv-x="314" />
<glyph unicode="&#x2007;" horiz-adv-x="314" />
<glyph unicode="&#x2008;" horiz-adv-x="236" />
<glyph unicode="&#x2009;" horiz-adv-x="377" />
<glyph unicode="&#x200a;" horiz-adv-x="104" />
<glyph unicode="&#x2010;" horiz-adv-x="841" d="M109 506l65 244h606l-65 -244h-606z" />
<glyph unicode="&#x2011;" horiz-adv-x="841" d="M109 506l65 244h606l-65 -244h-606z" />
<glyph unicode="&#x2012;" horiz-adv-x="841" d="M109 506l65 244h606l-65 -244h-606z" />
<glyph unicode="&#x2013;" horiz-adv-x="1085" d="M109 510l63 235h852l-63 -235h-852z" />
<glyph unicode="&#x2014;" horiz-adv-x="1843" d="M109 510l63 235h1610l-64 -235h-1609z" />
<glyph unicode="&#x2018;" horiz-adv-x="600" d="M223 866l64 238q46 172 141 250.5t256 89.5l18 -105q-207 -28 -235 -192h104l-75 -281h-273z" />
<glyph unicode="&#x2019;" horiz-adv-x="600" d="M190 961q208 28 236 192h-104l75 281h273l-64 -240q-46 -170 -141 -249t-256 -91z" />
<glyph unicode="&#x201a;" horiz-adv-x="600" d="M-111 -193q204 28 236 193h-107l76 281h273l-64 -238q-45 -171 -139 -249.5t-256 -90.5z" />
<glyph unicode="&#x201c;" horiz-adv-x="1073" d="M225 864l64 240q45 170 139.5 249t255.5 91l18 -107q-207 -28 -235 -190h106l-75 -283h-273zM698 864l66 240q45 170 139.5 249t255.5 91l19 -107q-208 -28 -236 -190h107l-76 -283h-275z" />
<glyph unicode="&#x201d;" horiz-adv-x="1073" d="M186 961q108 15 164.5 62.5t71.5 129.5h-107l76 281h273l-64 -240q-45 -170 -139.5 -249t-255.5 -91zM659 961q208 28 236 192h-104l75 281h273l-64 -240q-47 -171 -141 -249.5t-256 -90.5z" />
<glyph unicode="&#x201e;" horiz-adv-x="1075" d="M-111 -193q204 28 236 193h-107l76 281h273l-64 -238q-45 -171 -139 -249.5t-256 -90.5zM365 -193q206 28 235 193h-106l75 281h273l-64 -238q-45 -171 -139 -249.5t-256 -90.5z" />
<glyph unicode="&#x2022;" horiz-adv-x="1005" d="M264 657q0 91 41.5 174t118.5 137t170 54q105 0 167 -64t62 -170q0 -90 -41.5 -173.5t-117.5 -137t-168 -53.5q-107 0 -169.5 63t-62.5 170z" />
<glyph unicode="&#x2026;" horiz-adv-x="1669" d="M18 0l74 276h268l-75 -276h-267zM557 0l74 276h268l-74 -276h-268zM1096 0l75 276h267l-74 -276h-268z" />
<glyph unicode="&#x202f;" horiz-adv-x="377" />
<glyph unicode="&#x2039;" horiz-adv-x="724" d="M94 520l4 17l471 462l148 -133l-371 -362l166 -342l-201 -92z" />
<glyph unicode="&#x203a;" horiz-adv-x="724" d="M6 201l369 364l-164 342l199 90l219 -448l-4 -17l-473 -462z" />
<glyph unicode="&#x205f;" horiz-adv-x="472" />
<glyph unicode="&#x2122;" horiz-adv-x="1427" d="M242 1323l30 111h508l-28 -111h-195l-143 -520h-121l141 520h-192zM743 803l175 631h120l109 -299l270 299h135l-174 -631h-116l124 448l-276 -303h-12l-113 303l-125 -448h-117z" />
<glyph unicode="&#x25fc;" horiz-adv-x="1085" d="M0 0v1085h1085v-1085h-1085z" />
<glyph unicode="&#xfb01;" horiz-adv-x="1398" d="M68 0l233 868h-137l57 213h137l21 88q90 336 412 336q128 0 213 -37l-56 -206q-78 32 -151 32q-137 0 -179 -151l-16 -62h299l-57 -213h-295l-234 -868h-247zM836 0l290 1081h248l-291 -1081h-247zM1161 1247l66 236h266l-63 -236h-269z" />
<glyph unicode="&#xfb02;" horiz-adv-x="1398" d="M68 0l233 868h-137l57 213h137l21 88q90 336 412 336q128 0 213 -37l-56 -206q-78 32 -151 32q-137 0 -179 -151l-16 -62h299l-57 -213h-295l-234 -868h-247zM836 0l401 1495h248l-402 -1495h-247z" />
</font>
</defs>
</svg>
